<?xml version="1.0" encoding="UTF-8" standalone="no"?><!DOCTYPE svg PUBLIC "-//W3C//DTD SVG 1.1//EN" "http://www.w3.org/Graphics/SVG/1.1/DTD/svg11.dtd"><svg width="100%" height="100%" viewBox="0 0 5120 5120" version="1.1" xmlns="http://www.w3.org/2000/svg" xmlns:xlink="http://www.w3.org/1999/xlink" xml:space="preserve" xmlns:serif="http://www.serif.com/" style="fill-rule:evenodd;clip-rule:evenodd;stroke-linecap:round;stroke-linejoin:round;stroke-miterlimit:1.5;"><g><path d="M403.049,2243.994c0,-1066.487 865.852,-1932.339 1932.339,-1932.339c525.452,0 1002.2,210.183 1350.684,550.989l-948.435,932.684c-108.594,-102.897 -255.221,-166.046 -416.482,-166.046c-334.331,0 -605.765,271.434 -605.765,605.765c0,334.331 271.434,605.765 605.765,605.765c334.331,0 605.765,-271.434 605.765,-605.765c0,-7.53 -0.138,-15.027 -0.411,-22.491l1341.164,16.979c0.035,4.815 0.053,9.635 0.053,14.459c0,1004.18 -767.637,1830.484 -1747.606,1923.606c-3.803,294.766 2.515,250.733 0.08,640.697c-837.44,7.715 -2142.39,-902.55 -2117.153,-2564.303Z" style="fill:#ffd400;stroke:#000;stroke-width:162.08px;"/><path d="M4267.675,2229.535l-1341.164,-16.979c0.273,7.463 0.411,14.961 0.411,22.491c0,334.331 -271.434,605.765 -605.765,605.765c-334.331,0 -605.765,-271.434 -605.765,-605.765c0,-334.331 271.434,-605.765 605.765,-605.765c161.261,0 307.888,63.149 416.482,166.046l948.435,-932.684c355.621,347.785 577.671,831.599 581.602,1366.891Z" style="fill:#fff;stroke:#000;stroke-width:162.08px;"/><circle cx="2335.389" cy="2243.994" r="708.886" style="fill:#fff;stroke:#000;stroke-width:162.08px;"/></g></svg>