<?xml version="1.0" encoding="UTF-8" standalone="no"?><!DOCTYPE svg PUBLIC "-//W3C//DTD SVG 1.1//EN" "http://www.w3.org/Graphics/SVG/1.1/DTD/svg11.dtd"><svg width="100%" height="100%" viewBox="0 0 5120 5120" version="1.1" xmlns="http://www.w3.org/2000/svg" xmlns:xlink="http://www.w3.org/1999/xlink" xml:space="preserve" xmlns:serif="http://www.serif.com/" style="fill-rule:evenodd;clip-rule:evenodd;stroke-linecap:round;stroke-linejoin:round;stroke-miterlimit:1.5;"><g><path d="M4492.52,2243.994c0,1004.18 -767.637,1830.484 -1747.606,1923.606c-3.803,294.766 2.515,250.733 0.08,640.697c-837.44,7.715 -2142.39,-902.55 -2117.153,-2564.303c-0,-1066.487 865.852,-1932.339 1932.339,-1932.339c766.081,0 1428.636,446.767 1741.109,1093.744l-1135.564,466.937c-38.271,-62.738 -87.022,-120.53 -146.035,-170.704c-298.072,-253.428 -745.82,-217.182 -999.247,80.89c-253.428,298.072 -217.182,745.82 80.89,999.247c298.072,253.428 745.82,217.182 999.247,-80.89c66.415,-78.115 112.936,-166.51 140.063,-258.992l1144.983,435.562c71.391,-205.359 106.767,-419.659 106.893,-633.454Zm-191.23,-838.596l1.253,-0.515c126.196,263.335 190.147,550.764 189.977,839.111c0,-300.407 -68.699,-584.894 -191.23,-838.596Zm-1060.646,1036.488l27.608,-161.547c-2.921,54.414 -12.092,108.65 -27.608,161.547Zm27.608,-161.547l-1.943,-103.242c3.136,34.29 3.791,68.802 1.943,103.242Zm-1.943,-103.242l-31.779,-154.939c16.354,50.422 26.976,102.42 31.779,154.939Zm-31.779,-154.939l-68.804,-149.823c28.971,47.492 51.937,97.819 68.804,149.823Z" style="fill:#ffd400;stroke:#000;stroke-width:142.92px;"/></g></svg>